<svg width="560" height="760" viewBox="0 0 560 760" xmlns="http://www.w3.org/2000/svg">
  <defs>
    <radialGradient id="gradRed" cx="0" cy="0" r="1" gradientUnits="userSpaceOnUse" gradientTransform="translate(140 120) rotate(25) scale(220 220)">
      <stop offset="0" stop-color="#ef4444" stop-opacity="0.22" />
      <stop offset="1" stop-color="#ef4444" stop-opacity="0" />
    </radialGradient>
    <radialGradient id="gradCyan" cx="0" cy="0" r="1" gradientUnits="userSpaceOnUse" gradientTransform="translate(440 600) rotate(-25) scale(260 240)">
      <stop offset="0" stop-color="#22d3ee" stop-opacity="0.18" />
      <stop offset="1" stop-color="#22d3ee" stop-opacity="0" />
    </radialGradient>
    <filter id="shadow" x="-15%" y="-15%" width="130%" height="130%">
      <feDropShadow dx="0" dy="20" stdDeviation="32" flood-color="#ef4444" flood-opacity="0.12" />
    </filter>
  </defs>
  <rect x="0" y="0" width="560" height="760" rx="24" fill="#0b0b0c" stroke="#FFFFFF1A" filter="url(#shadow)" />
  <rect x="0" y="0" width="560" height="760" rx="24" fill="url(#gradRed)" />
  <rect x="0" y="0" width="560" height="760" rx="24" fill="url(#gradCyan)" />

  <g transform="translate(64 88)">
    <rect x="0" y="0" width="432" height="584" rx="28" fill="#111216" stroke="#FFFFFF18" />
    <g transform="translate(32 32)">
      <circle cx="32" cy="32" r="32" fill="#22d3ee33" />
      <rect x="80" y="18" width="120" height="16" rx="8" fill="#ffffff2e" />
      <rect x="80" y="44" width="96" height="12" rx="6" fill="#ffffff22" />
    </g>
    <rect x="32" y="108" width="368" height="220" rx="24" fill="#15181d" stroke="#FFFFFF16" />
    <rect x="32" y="356" width="248" height="16" rx="8" fill="#ffffff30" />
    <rect x="32" y="388" width="296" height="12" rx="6" fill="#ffffff1f" />
    <rect x="32" y="420" width="272" height="12" rx="6" fill="#ffffff1f" />
    <rect x="32" y="452" width="212" height="12" rx="6" fill="#ffffff1f" />

    <g transform="translate(32 500)">
      <rect x="0" y="0" width="168" height="60" rx="16" fill="#14181d" stroke="#FFFFFF16" />
      <text x="84" y="36" text-anchor="middle" font-family="'Inter', 'Segoe UI', sans-serif" font-weight="600" font-size="18" fill="#ffffffcc">CTA</text>
      <rect x="196" y="12" width="96" height="12" rx="6" fill="#ffffff24" />
      <rect x="196" y="36" width="140" height="12" rx="6" fill="#ffffff24" />
    </g>
    <g transform="translate(32 580)" fill="#22d3ee55">
      <circle cx="16" cy="16" r="6" />
      <circle cx="48" cy="16" r="6" />
      <circle cx="80" cy="16" r="6" />
      <rect x="112" y="12" width="80" height="8" rx="4" fill="#ffffff33" />
    </g>
  </g>

  <text x="532" y="732" font-family="'Inter', 'Segoe UI', sans-serif" font-size="14" text-anchor="end" fill="#ffffff66">VORTEX360</text>
</svg>
