<?xml version="1.0" encoding="UTF-8"?>
<svg width="980" height="560" viewBox="0 0 980 560" xmlns="http://www.w3.org/2000/svg">
  <defs>
    <radialGradient id="gRed" cx="0" cy="0" r="1" gradientUnits="userSpaceOnUse" gradientTransform="translate(220 60) rotate(45) scale(260)">
      <stop stop-color="#ef4444" stop-opacity="0.25"/>
      <stop offset="1" stop-color="#ef4444" stop-opacity="0"/>
    </radialGradient>
    <radialGradient id="gCyan" cx="0" cy="0" r="1" gradientUnits="userSpaceOnUse" gradientTransform="translate(800 500) rotate(-30) scale(280)">
      <stop stop-color="#22d3ee" stop-opacity="0.22"/>
      <stop offset="1" stop-color="#22d3ee" stop-opacity="0"/>
    </radialGradient>
  </defs>

  <!-- base -->
  <rect x="0" y="0" width="980" height="560" rx="24" fill="#0b0b0c" stroke="#FFFFFF1A"/>
  <rect x="0" y="0" width="980" height="560" rx="24" fill="url(#gRed)"/>
  <rect x="0" y="0" width="980" height="560" rx="24" fill="url(#gCyan)"/>

  <!-- moldura interna (tipo navegador/card) -->
  <rect x="65" y="88" width="850" height="384" rx="20" fill="#0d0f12" stroke="#FFFFFF10"/>
  <!-- “cartão social” -->
  <rect x="120" y="140" width="740" height="300" rx="24" fill="#12151a" stroke="#FFFFFF12"/>

  <!-- avatar + linhas -->
  <circle cx="170" cy="178" r="20" fill="#0e3e45"/>
  <rect x="205" y="168" width="150" height="12" rx="6" fill="#2a2f36"/>
  <rect x="205" y="186" width="110" height="10" rx="5" fill="#2a2f36"/>

  <!-- mídia -->
  <rect x="160" y="210" width="420" height="110" rx="16" fill="#161a21" stroke="#FFFFFF08"/>

  <!-- linhas -->
  <rect x="160" y="334" width="240" height="12" rx="6" fill="#2a2f36"/>
  <rect x="160" y="354" width="300" height="10" rx="5" fill="#2a2f36"/>
  <rect x="160" y="372" width="260" height="10" rx="5" fill="#2a2f36"/>

  <!-- CTA + linhas laterais -->
  <rect x="160" y="400" width="120" height="36" rx="10" fill="#0f1520" stroke="#FFFFFF10"/>
  <text x="188" y="424" font-family="Inter, system-ui, -apple-system, Segoe UI, Roboto" font-size="14" fill="#e5e7eb">CTA</text>
  <rect x="310" y="404" width="120" height="10" rx="5" fill="#2a2f36"/>
  <rect x="310" y="420" width="150" height="10" rx="5" fill="#2a2f36"/>

  <!-- paginação -->
  <circle cx="170" cy="442" r="5" fill="#10b6c7"/>
  <circle cx="190" cy="442" r="5" fill="#134e57"/>
  <circle cx="210" cy="442" r="5" fill="#134e57"/>
  <rect x="240" y="438" width="80" height="8" rx="4" fill="#2a2f36"/>

  <text x="885" y="500" font-family="Inter, system-ui, -apple-system, Segoe UI, Roboto" font-size="12" fill="#ffffff88" text-anchor="end">VORTEX360</text>
</svg>
