<svg width="880" height="560" viewBox="0 0 880 560" xmlns="http://www.w3.org/2000/svg">
  <defs>
    <radialGradient id="gradRed" cx="0" cy="0" r="1" gradientUnits="userSpaceOnUse" gradientTransform="translate(180 120) rotate(28) scale(240 200)">
      <stop offset="0" stop-color="#ef4444" stop-opacity="0.22" />
      <stop offset="1" stop-color="#ef4444" stop-opacity="0" />
    </radialGradient>
    <radialGradient id="gradCyan" cx="0" cy="0" r="1" gradientUnits="userSpaceOnUse" gradientTransform="translate(660 420) rotate(-28) scale(280 240)">
      <stop offset="0" stop-color="#22d3ee" stop-opacity="0.18" />
      <stop offset="1" stop-color="#22d3ee" stop-opacity="0" />
    </radialGradient>
    <filter id="shadow" x="-12%" y="-12%" width="124%" height="124%">
      <feDropShadow dx="0" dy="18" stdDeviation="28" flood-color="#ef4444" flood-opacity="0.12" />
    </filter>
  </defs>
  <rect x="0" y="0" width="880" height="560" rx="24" fill="#0b0b0c" stroke="#FFFFFF1A" filter="url(#shadow)" />
  <rect x="0" y="0" width="880" height="560" rx="24" fill="url(#gradRed)" />
  <rect x="0" y="0" width="880" height="560" rx="24" fill="url(#gradCyan)" />

  <g transform="translate(72 80)">
    <rect x="0" y="0" width="736" height="400" rx="28" fill="#111216" stroke="#FFFFFF16" />
    <g transform="translate(32 40)">
      <rect x="0" y="0" width="208" height="320" rx="20" fill="#15181d" stroke="#FFFFFF18" />
      <rect x="232" y="0" width="208" height="320" rx="20" fill="#15181d" stroke="#FFFFFF18" />
      <rect x="464" y="0" width="208" height="320" rx="20" fill="#15181d" stroke="#FFFFFF18" />

      <text x="20" y="36" font-family="'Inter', 'Segoe UI', sans-serif" font-weight="600" font-size="18" fill="#ffffffcc">Prospects</text>
      <text x="252" y="36" font-family="'Inter', 'Segoe UI', sans-serif" font-weight="600" font-size="18" fill="#ffffffcc">Qualificação</text>
      <text x="484" y="36" font-family="'Inter', 'Segoe UI', sans-serif" font-weight="600" font-size="18" fill="#ffffffcc">Fechamento</text>

      <g transform="translate(12 64)">
        <rect x="0" y="0" width="184" height="88" rx="18" fill="#1a1d23" stroke="#FFFFFF18" />
        <circle cx="32" cy="34" r="14" fill="#22d3ee44" />
        <rect x="60" y="24" width="96" height="10" rx="5" fill="#ffffff26" />
        <rect x="60" y="44" width="72" height="10" rx="5" fill="#ffffff1f" />

        <rect x="0" y="108" width="184" height="88" rx="18" fill="#1a1d23" stroke="#FFFFFF18" />
        <circle cx="32" cy="142" r="14" fill="#ef444444" />
        <rect x="60" y="132" width="96" height="10" rx="5" fill="#ffffff26" />
        <rect x="60" y="152" width="72" height="10" rx="5" fill="#ffffff1f" />
      </g>

      <g transform="translate(244 64)">
        <rect x="0" y="0" width="184" height="88" rx="18" fill="#1a1d23" stroke="#FFFFFF18" />
        <circle cx="32" cy="34" r="14" fill="#22d3ee44" />
        <rect x="60" y="24" width="96" height="10" rx="5" fill="#ffffff26" />
        <rect x="60" y="44" width="72" height="10" rx="5" fill="#ffffff1f" />

        <rect x="0" y="108" width="184" height="88" rx="18" fill="#1a1d23" stroke="#FFFFFF18" />
        <circle cx="32" cy="142" r="14" fill="#22d3ee44" />
        <rect x="60" y="132" width="96" height="10" rx="5" fill="#ffffff26" />
        <rect x="60" y="152" width="72" height="10" rx="5" fill="#ffffff1f" />
      </g>

      <g transform="translate(476 64)">
        <rect x="0" y="0" width="184" height="88" rx="18" fill="#1a1d23" stroke="#FFFFFF18" />
        <circle cx="32" cy="34" r="14" fill="#22d3ee44" />
        <rect x="60" y="24" width="96" height="10" rx="5" fill="#ffffff26" />
        <rect x="60" y="44" width="72" height="10" rx="5" fill="#ffffff1f" />

        <rect x="0" y="108" width="184" height="88" rx="18" fill="#1a1d23" stroke="#FFFFFF18" />
        <circle cx="32" cy="142" r="14" fill="#ef444444" />
        <rect x="60" y="132" width="96" height="10" rx="5" fill="#ffffff26" />
        <rect x="60" y="152" width="72" height="10" rx="5" fill="#ffffff1f" />
      </g>
    </g>
  </g>

  <text x="852" y="532" font-family="'Inter', 'Segoe UI', sans-serif" font-size="14" text-anchor="end" fill="#ffffff66">VORTEX360</text>
</svg>
