<svg width="980" height="560" viewBox="0 0 980 560" xmlns="http://www.w3.org/2000/svg">
  <defs>
    <radialGradient id="gradRed" cx="0" cy="0" r="1" gradientUnits="userSpaceOnUse" gradientTransform="translate(220 140) rotate(28) scale(260 220)">
      <stop offset="0" stop-color="#ef4444" stop-opacity="0.22" />
      <stop offset="1" stop-color="#ef4444" stop-opacity="0" />
    </radialGradient>
    <radialGradient id="gradCyan" cx="0" cy="0" r="1" gradientUnits="userSpaceOnUse" gradientTransform="translate(720 420) rotate(-28) scale(320 260)">
      <stop offset="0" stop-color="#22d3ee" stop-opacity="0.18" />
      <stop offset="1" stop-color="#22d3ee" stop-opacity="0" />
    </radialGradient>
    <filter id="shadow" x="-12%" y="-12%" width="124%" height="124%">
      <feDropShadow dx="0" dy="18" stdDeviation="28" flood-color="#ef4444" flood-opacity="0.12" />
    </filter>
  </defs>
  <rect x="0" y="0" width="980" height="560" rx="24" fill="#0b0b0c" stroke="#FFFFFF1A" filter="url(#shadow)" />
  <rect x="0" y="0" width="980" height="560" rx="24" fill="url(#gradRed)" />
  <rect x="0" y="0" width="980" height="560" rx="24" fill="url(#gradCyan)" />

  <g transform="translate(80 80)">
    <rect x="0" y="0" width="820" height="400" rx="28" fill="#111216" stroke="#FFFFFF16" />
    <g transform="translate(40 48)">
      <rect x="0" y="0" width="240" height="150" rx="20" fill="#15181d" stroke="#FFFFFF16" />
      <circle cx="76" cy="74" r="52" fill="#0d1014" stroke="#22d3ee55" stroke-width="10" />
      <path d="M76 22 A52 52 0 0 1 126 74" fill="none" stroke="#ef4444" stroke-width="10" stroke-linecap="round" />
      <text x="76" y="84" font-family="'Inter', 'Segoe UI', sans-serif" font-size="20" font-weight="600" text-anchor="middle" fill="#ffffffd0">68%</text>
    </g>
    <g transform="translate(320 48)">
      <rect x="0" y="0" width="456" height="150" rx="20" fill="#14171c" stroke="#FFFFFF16" />
      <g transform="translate(32 40)" stroke="#22d3ee50" stroke-width="3" stroke-linecap="round">
        <path d="M0 70 C60 30 120 30 180 60 C240 90 300 90 360 50" fill="none" />
      </g>
      <g transform="translate(32 40)" fill="#22d3ee80">
        <circle cx="0" cy="70" r="6" />
        <circle cx="120" cy="36" r="6" />
        <circle cx="240" cy="84" r="6" />
        <circle cx="360" cy="50" r="6" />
      </g>
    </g>

    <g transform="translate(40 234)">
      <rect x="0" y="0" width="360" height="126" rx="18" fill="#15181d" stroke="#FFFFFF16" />
      <rect x="24" y="26" width="120" height="14" rx="7" fill="#ffffff26" />
      <rect x="24" y="56" width="214" height="12" rx="6" fill="#ffffff1f" />
      <rect x="24" y="84" width="196" height="12" rx="6" fill="#ffffff1f" />
    </g>

    <g transform="translate(428 234)">
      <rect x="0" y="0" width="392" height="126" rx="18" fill="#15181d" stroke="#FFFFFF16" />
      <g transform="translate(32 28)" fill="#ffffff26">
        <rect x="0" y="0" width="48" height="12" rx="6" />
        <rect x="64" y="0" width="48" height="12" rx="6" />
        <rect x="128" y="0" width="48" height="12" rx="6" />
      </g>
      <g transform="translate(32 60)" fill="#22d3ee55">
        <rect x="0" y="0" width="48" height="40" rx="12" />
        <rect x="64" y="8" width="48" height="32" rx="12" />
        <rect x="128" y="16" width="48" height="24" rx="12" />
        <rect x="192" y="4" width="48" height="36" rx="12" />
        <rect x="256" y="12" width="48" height="28" rx="12" />
      </g>
    </g>
  </g>

  <text x="950" y="532" font-family="'Inter', 'Segoe UI', sans-serif" font-size="14" text-anchor="end" fill="#ffffff66">VORTEX360</text>
</svg>
