<svg width="480" height="320" viewBox="0 0 480 320" xmlns="http://www.w3.org/2000/svg">
  <defs>
    <radialGradient id="gradRed" cx="0" cy="0" r="1" gradientUnits="userSpaceOnUse" gradientTransform="translate(96 64) rotate(35) scale(160 140)">
      <stop offset="0" stop-color="#ef4444" stop-opacity="0.18" />
      <stop offset="1" stop-color="#ef4444" stop-opacity="0" />
    </radialGradient>
    <radialGradient id="gradCyan" cx="0" cy="0" r="1" gradientUnits="userSpaceOnUse" gradientTransform="translate(380 260) rotate(-35) scale(200 160)">
      <stop offset="0" stop-color="#22d3ee" stop-opacity="0.14" />
      <stop offset="1" stop-color="#22d3ee" stop-opacity="0" />
    </radialGradient>
    <filter id="shadow" x="-20%" y="-20%" width="140%" height="140%">
      <feDropShadow dx="0" dy="14" stdDeviation="28" flood-color="#ef4444" flood-opacity="0.12" />
    </filter>
  </defs>
  <rect x="0" y="0" width="480" height="320" rx="24" fill="#0b0b0c" stroke="#FFFFFF1A" filter="url(#shadow)" />
  <rect x="0" y="0" width="480" height="320" rx="24" fill="url(#gradRed)" />
  <rect x="0" y="0" width="480" height="320" rx="24" fill="url(#gradCyan)" />

  <g transform="translate(48 60)">
    <rect x="0" y="0" width="384" height="200" rx="20" fill="#101115" stroke="#FFFFFF12" />
    <rect x="24" y="28" width="120" height="16" rx="8" fill="#ffffff2e" />
    <rect x="24" y="56" width="80" height="12" rx="6" fill="#ffffff1e" />
    <rect x="24" y="84" width="96" height="12" rx="6" fill="#ffffff1e" />

    <g transform="translate(168 32)">
      <rect x="0" y="0" width="176" height="120" rx="16" fill="#141519" stroke="#FFFFFF12" />
      <rect x="20" y="20" width="56" height="12" rx="6" fill="#22d3ee33" />
      <rect x="20" y="44" width="112" height="10" rx="5" fill="#ffffff22" />
      <rect x="20" y="68" width="92" height="10" rx="5" fill="#ffffff18" />
      <rect x="20" y="92" width="76" height="10" rx="5" fill="#ffffff18" />
    </g>

    <g transform="translate(24 144)" fill="#22d3ee33">
      <rect x="0" y="0" width="96" height="12" rx="6" />
      <rect x="112" y="0" width="72" height="12" rx="6" />
      <rect x="200" y="0" width="56" height="12" rx="6" />
      <rect x="272" y="0" width="84" height="12" rx="6" />
    </g>
  </g>

  <text x="460" y="300" font-family="'Inter', 'Segoe UI', sans-serif" font-size="12" text-anchor="end" fill="#ffffff66">VORTEX360</text>
</svg>
