<svg width="480" height="320" viewBox="0 0 480 320" xmlns="http://www.w3.org/2000/svg">
  <defs>
    <radialGradient id="gradRed" cx="0" cy="0" r="1" gradientUnits="userSpaceOnUse" gradientTransform="translate(120 60) rotate(30) scale(170 150)">
      <stop offset="0" stop-color="#ef4444" stop-opacity="0.2" />
      <stop offset="1" stop-color="#ef4444" stop-opacity="0" />
    </radialGradient>
    <radialGradient id="gradCyan" cx="0" cy="0" r="1" gradientUnits="userSpaceOnUse" gradientTransform="translate(360 260) rotate(-30) scale(210 170)">
      <stop offset="0" stop-color="#22d3ee" stop-opacity="0.16" />
      <stop offset="1" stop-color="#22d3ee" stop-opacity="0" />
    </radialGradient>
    <filter id="shadow" x="-20%" y="-20%" width="140%" height="140%">
      <feDropShadow dx="0" dy="12" stdDeviation="25" flood-color="#ef4444" flood-opacity="0.12" />
    </filter>
  </defs>
  <rect x="0" y="0" width="480" height="320" rx="24" fill="#0b0b0c" stroke="#FFFFFF1A" filter="url(#shadow)" />
  <rect x="0" y="0" width="480" height="320" rx="24" fill="url(#gradRed)" />
  <rect x="0" y="0" width="480" height="320" rx="24" fill="url(#gradCyan)" />

  <g transform="translate(48 56)">
    <rect x="0" y="0" width="384" height="208" rx="22" fill="#111216" stroke="#FFFFFF16" />
    <g transform="translate(24 32)" fill="#ffffff24">
      <rect x="0" y="0" width="90" height="12" rx="6" />
      <rect x="112" y="0" width="64" height="12" rx="6" />
      <rect x="196" y="0" width="72" height="12" rx="6" />
      <rect x="0" y="26" width="160" height="10" rx="5" />
      <rect x="0" y="50" width="128" height="10" rx="5" />
      <rect x="0" y="74" width="186" height="10" rx="5" />
    </g>

    <g transform="translate(24 140)">
      <rect x="0" y="0" width="336" height="40" rx="12" fill="#16171c" stroke="#FFFFFF12" />
      <rect x="16" y="12" width="80" height="12" rx="6" fill="#22d3ee33" />
      <rect x="112" y="12" width="120" height="12" rx="6" fill="#ffffff2c" />
      <rect x="248" y="12" width="56" height="12" rx="6" fill="#22d3ee22" />
    </g>

    <g transform="translate(240 36)">
      <rect x="0" y="0" width="120" height="84" rx="16" fill="#15171b" stroke="#FFFFFF16" />
      <circle cx="30" cy="30" r="12" fill="#22d3ee33" />
      <rect x="54" y="20" width="52" height="10" rx="5" fill="#ffffff26" />
      <rect x="20" y="54" width="80" height="10" rx="5" fill="#ffffff1f" />
    </g>
  </g>

  <text x="460" y="300" font-family="'Inter', 'Segoe UI', sans-serif" font-size="12" text-anchor="end" fill="#ffffff66">VORTEX360</text>
</svg>
