<svg width="980" height="560" viewBox="0 0 980 560" xmlns="http://www.w3.org/2000/svg">
  <defs>
    <radialGradient id="gradRed" cx="0" cy="0" r="1" gradientUnits="userSpaceOnUse" gradientTransform="translate(200 120) rotate(25) scale(260 220)">
      <stop offset="0" stop-color="#ef4444" stop-opacity="0.22" />
      <stop offset="1" stop-color="#ef4444" stop-opacity="0" />
    </radialGradient>
    <radialGradient id="gradCyan" cx="0" cy="0" r="1" gradientUnits="userSpaceOnUse" gradientTransform="translate(740 420) rotate(-25) scale(320 260)">
      <stop offset="0" stop-color="#22d3ee" stop-opacity="0.18" />
      <stop offset="1" stop-color="#22d3ee" stop-opacity="0" />
    </radialGradient>
    <filter id="shadow" x="-12%" y="-12%" width="124%" height="124%">
      <feDropShadow dx="0" dy="18" stdDeviation="28" flood-color="#ef4444" flood-opacity="0.12" />
    </filter>
  </defs>
  <rect x="0" y="0" width="980" height="560" rx="24" fill="#0b0b0c" stroke="#FFFFFF1A" filter="url(#shadow)" />
  <rect x="0" y="0" width="980" height="560" rx="24" fill="url(#gradRed)" />
  <rect x="0" y="0" width="980" height="560" rx="24" fill="url(#gradCyan)" />

  <g transform="translate(80 80)">
    <rect x="0" y="0" width="820" height="400" rx="28" fill="#111216" stroke="#FFFFFF1A" />
    <rect x="0" y="0" width="820" height="72" rx="28" fill="#14171c" stroke="#FFFFFF1A" />
    <g transform="translate(24 26)" fill="#ffffff33">
      <circle cx="0" cy="0" r="6" />
      <circle cx="20" cy="0" r="6" />
      <circle cx="40" cy="0" r="6" />
    </g>
    <rect x="120" y="24" width="200" height="16" rx="8" fill="#ffffff2a" />
    <rect x="352" y="24" width="120" height="16" rx="8" fill="#ffffff20" />
    <rect x="0" y="96" width="820" height="284" rx="24" fill="#15181d" stroke="#FFFFFF12" />

    <g transform="translate(48 140)" fill="#ffffff1f">
      <rect x="0" y="0" width="280" height="20" rx="10" />
      <rect x="0" y="36" width="220" height="16" rx="8" />
      <rect x="0" y="64" width="260" height="16" rx="8" />
      <rect x="0" y="92" width="220" height="16" rx="8" />
      <rect x="380" y="0" width="320" height="200" rx="24" fill="#101217" stroke="#FFFFFF1A" />
      <rect x="380" y="220" width="320" height="16" rx="8" />
      <rect x="380" y="248" width="180" height="16" rx="8" />
    </g>
  </g>

  <text x="950" y="532" font-family="'Inter', 'Segoe UI', sans-serif" font-size="14" text-anchor="end" fill="#ffffff66">VORTEX360</text>
</svg>
