<svg width="360" height="560" viewBox="0 0 360 560" xmlns="http://www.w3.org/2000/svg">
  <defs>
    <radialGradient id="gradRed" cx="0" cy="0" r="1" gradientUnits="userSpaceOnUse" gradientTransform="translate(90 110) rotate(30) scale(200 180)">
      <stop offset="0" stop-color="#ef4444" stop-opacity="0.22" />
      <stop offset="1" stop-color="#ef4444" stop-opacity="0" />
    </radialGradient>
    <radialGradient id="gradCyan" cx="0" cy="0" r="1" gradientUnits="userSpaceOnUse" gradientTransform="translate(260 420) rotate(-30) scale(220 200)">
      <stop offset="0" stop-color="#22d3ee" stop-opacity="0.18" />
      <stop offset="1" stop-color="#22d3ee" stop-opacity="0" />
    </radialGradient>
    <linearGradient id="portrait" x1="0" y1="0" x2="1" y2="1">
      <stop offset="0" stop-color="#312e81" />
      <stop offset="1" stop-color="#1e1b4b" />
    </linearGradient>
    <filter id="shadow" x="-15%" y="-15%" width="130%" height="130%">
      <feDropShadow dx="0" dy="16" stdDeviation="24" flood-color="#ef4444" flood-opacity="0.12" />
    </filter>
  </defs>
  <rect x="0" y="0" width="360" height="560" rx="24" fill="#0b0b0c" stroke="#FFFFFF1A" filter="url(#shadow)" />
  <rect x="0" y="0" width="360" height="560" rx="24" fill="url(#gradRed)" />
  <rect x="0" y="0" width="360" height="560" rx="24" fill="url(#gradCyan)" />

  <g transform="translate(56 64)">
    <rect x="0" y="0" width="248" height="432" rx="28" fill="#111216" stroke="#FFFFFF16" />
    <rect x="32" y="32" width="184" height="184" rx="92" fill="url(#portrait)" />
    <ellipse cx="124" cy="184" rx="78" ry="88" fill="#312e81" opacity="0.35" />
    <rect x="48" y="256" width="152" height="18" rx="9" fill="#22d3ee33" />
    <rect x="48" y="286" width="180" height="12" rx="6" fill="#ffffff26" />
    <rect x="48" y="308" width="140" height="12" rx="6" fill="#ffffff18" />
    <rect x="48" y="360" width="156" height="12" rx="6" fill="#ffffff20" />
    <rect x="48" y="384" width="124" height="12" rx="6" fill="#ffffff20" />
  </g>

  <text x="332" y="532" font-family="'Inter', 'Segoe UI', sans-serif" font-size="14" text-anchor="end" fill="#ffffff66">VORTEX360</text>
</svg>
